<svg width="128" height="128" viewBox="0 0 128 128" fill="none" xmlns="http://www.w3.org/2000/svg">
<rect width="128" height="128" fill="white"/>
<ellipse cx="51" cy="51.5" rx="32" ry="31.5" fill="#F2C94C"/>
<path d="M17.9375 14.1562H61.625V22.8438H27.8438V35.625H56.5312V43.7812H27.8438V63H17.9375V14.1562Z" fill="black"/>
<path d="M17.9375 69.1562H43.6875C47.4375 69.1562 50.6875 69.5625 53.4375 70.375C56.1875 71.1875 58.4688 72.3646 60.2812 73.9062C62.0938 75.4271 63.4375 77.2917 64.3125 79.5C65.2083 81.7083 65.6562 84.1979 65.6562 86.9688C65.6562 89.5729 65.2188 91.9792 64.3438 94.1875C63.4688 96.3958 62.125 98.3125 60.3125 99.9375C58.5208 101.542 56.25 102.802 53.5 103.719C50.75 104.615 47.5 105.062 43.75 105.062L27.8438 105.031V118H17.9375V69.1562ZM43.9375 96.4688C45.8125 96.4688 47.4479 96.25 48.8438 95.8125C50.2604 95.3542 51.4375 94.7188 52.375 93.9062C53.3333 93.0729 54.0417 92.0729 54.5 90.9062C54.9792 89.7188 55.2188 88.4062 55.2188 86.9688C55.2188 84.0729 54.2708 81.8229 52.375 80.2188C50.5 78.5938 47.6875 77.7812 43.9375 77.7812H27.8438V96.4688H43.9375Z" fill="black"/>
<path d="M70.9375 14.1562H114.625V22.8438H80.8438V35.625H109.531V43.7812H80.8438V63H70.9375V14.1562Z" fill="black"/>
</svg>
