<svg viewBox="0 0 173 162" fill="none"
    xmlns="http://www.w3.org/2000/svg">
    <path d="M50.5605 7.69018C50.6321 7.25983 50.6963 6.8443 50.7538 6.44509C50.8114 6.84431 50.8756 7.25986 50.9472 7.69022C51.6391 11.8482 53.0233 17.4015 55.7959 22.9661C58.5694 28.5326 62.7371 34.1197 68.9974 38.3248C73.7449 41.5137 79.6789 43.8963 87.0897 44.8815C79.6775 45.8663 73.7426 48.2492 68.9947 51.4386C62.7346 55.6437 58.5674 61.2308 55.7942 66.7973C53.0221 72.3619 51.6383 77.9152 50.9467 82.0732C50.8752 82.503 50.8111 82.9181 50.7536 83.3168C50.6961 82.9181 50.632 82.503 50.5605 82.0732C49.8689 77.9152 48.4851 72.3619 45.7129 66.7973C42.9398 61.2308 38.7725 55.6437 32.5125 51.4386C27.7649 48.2495 21.8306 45.8667 14.4191 44.8817C21.8306 43.8967 27.7649 41.5139 32.5125 38.3248C38.7725 34.1197 42.9398 28.5326 45.7129 22.9661C48.4851 17.4014 49.8689 11.8482 50.5605 7.69018Z" fill="#8E3AE2" stroke="black"/>
    <path d="M127.535 80.1365C127.607 79.7061 127.671 79.2906 127.729 78.8914C127.786 79.2906 127.85 79.7061 127.922 80.1365C128.614 84.2945 129.998 89.8478 132.771 95.4124C135.544 100.979 139.712 106.566 145.972 110.771C150.72 113.96 156.654 116.343 164.065 117.328C156.652 118.313 150.717 120.696 145.97 123.885C139.709 128.09 135.542 133.677 132.769 139.244C129.997 144.808 128.613 150.361 127.922 154.519C127.85 154.949 127.786 155.364 127.728 155.763C127.671 155.364 127.607 154.949 127.535 154.519C126.844 150.361 125.46 144.808 122.688 139.244C119.915 133.677 115.747 128.09 109.487 123.885C104.74 120.696 98.8054 118.313 91.394 117.328C98.8054 116.343 104.74 113.96 109.487 110.771C115.747 106.566 119.915 100.979 122.688 95.4124C125.46 89.8477 126.844 84.2945 127.535 80.1365Z" fill="#2BEDE1" stroke="black"/>
    <path d="M171.095 81.6422C171.081 81.6507 171.068 81.6593 171.054 81.6681C170.587 81.9607 169.9 82.3901 169.016 82.9367C167.25 84.03 164.702 85.592 161.574 87.4667C155.319 91.2161 146.75 96.2148 137.492 101.213C128.232 106.212 118.291 111.206 109.291 114.948C100.269 118.7 92.264 121.163 86.8478 121.163C65.0209 121.163 47.3267 103.469 47.3267 81.6422C47.3267 59.8153 65.0209 42.1211 86.8478 42.1211C92.264 42.1211 100.269 44.5841 109.291 48.3361C118.291 52.0789 128.232 57.0728 137.492 62.0716C146.75 67.0697 155.319 72.0683 161.574 75.8178C164.702 77.6924 167.25 79.2545 169.016 80.3477C169.9 80.8943 170.587 81.3237 171.054 81.6164C171.068 81.6251 171.081 81.6337 171.095 81.6422Z" fill="#F8CEEE" stroke="black"/>
    <path d="M1.88574 81.642C1.89928 81.6335 1.91302 81.6248 1.92696 81.6161C2.39361 81.3235 3.08121 80.8941 3.96437 80.3475C5.7307 79.2542 8.27916 77.6921 11.4065 75.8175C17.6617 72.068 26.2309 67.0694 35.4891 62.0714C44.7488 57.0725 54.6898 52.0786 63.69 48.3358C72.7121 44.5839 80.7167 42.1208 86.1329 42.1208C107.96 42.1208 125.654 59.8151 125.654 81.642C125.654 103.469 107.96 121.163 86.1329 121.163C80.7167 121.163 72.7121 118.7 63.69 114.948C54.6898 111.205 44.7488 106.211 35.4891 101.213C26.2309 96.2145 17.6617 91.2159 11.4065 87.4664C8.27916 85.5918 5.7307 84.0297 3.96437 82.9365C3.08121 82.3898 2.39361 81.9604 1.92696 81.6678C1.91302 81.6591 1.89928 81.6505 1.88574 81.642Z" fill="white" stroke="black"/>
    <circle cx="89.5444" cy="74.5395" r="29.9975" fill="black"/>
    <circle cx="90.6761" cy="57.5599" r="5.7259" fill="white" stroke="black"/>
</svg>
